<?xml version="1.0" encoding="UTF-8"?>
<svg version="1.1" xmlns="http://www.w3.org/2000/svg" width="512" height="512">
<path d="M0 0 C1.01790619 0.00215515 2.03581238 0.0043103 3.08456421 0.00653076 C17.69363523 0.05620146 32.02575853 0.30709809 46.375 3.3125 C47.34985352 3.51117676 48.32470703 3.70985352 49.32910156 3.91455078 C97.7109774 14.03517194 141.69928269 35.9516877 177.375 70.3125 C178.3640332 71.26068604 178.3640332 71.26068604 179.37304688 72.22802734 C188.86130305 81.37247479 197.6012044 90.66984009 205.375 101.3125 C206.23306152 102.46355017 207.09113451 103.61459177 207.94921875 104.765625 C213.98736829 112.95680614 219.34595521 121.47054105 224.375 130.3125 C224.73948242 130.94430176 225.10396484 131.57610352 225.47949219 132.22705078 C247.00981855 169.84336237 256.83759735 212.56515288 256.75 255.625 C256.74918427 257.13927582 256.74918427 257.13927582 256.74835205 258.68414307 C256.70758601 275.19373539 255.80029309 291.11032001 252.375 307.3125 C252.15537598 308.35438477 251.93575195 309.39626953 251.70947266 310.46972656 C241.61185215 356.76299311 219.25271242 399.17663721 186.375 433.3125 C185.74287598 433.97185547 185.11075195 434.63121094 184.45947266 435.31054688 C175.31502521 444.79880305 166.01765991 453.5387044 155.375 461.3125 C154.22394983 462.17056152 153.07290823 463.02863451 151.921875 463.88671875 C143.73069386 469.92486829 135.21695895 475.28345521 126.375 480.3125 C125.74319824 480.67698242 125.11139648 481.04146484 124.46044922 481.41699219 C98.43104716 496.31535669 69.01389511 505.95897542 39.375 510.3125 C38.17037109 510.48982666 36.96574219 510.66715332 35.72460938 510.84985352 C24.06732646 512.448825 12.50313902 512.6709053 0.75 512.625 C-0.70483292 512.62226578 -0.70483292 512.62226578 -2.1890564 512.61947632 C-16.54056055 512.57408309 -30.50442918 512.0687347 -44.625 509.3125 C-45.52202637 509.15152832 -46.41905273 508.99055664 -47.34326172 508.82470703 C-96.03093124 500.01471851 -141.05505908 476.57143453 -176.625 442.3125 C-177.28435547 441.68037598 -177.94371094 441.04825195 -178.62304688 440.39697266 C-188.11130305 431.25252521 -196.8512044 421.95515991 -204.625 411.3125 C-205.48306152 410.16144983 -206.34113451 409.01040823 -207.19921875 407.859375 C-213.23677396 399.66974019 -218.61957302 391.16711724 -223.625 382.3125 C-224.0271875 381.60528809 -224.429375 380.89807617 -224.84375 380.16943359 C-237.8691741 357.03404164 -246.61801461 331.86287591 -251.9375 305.875 C-252.08485596 305.15610596 -252.23221191 304.43721191 -252.3840332 303.6965332 C-255.35789088 288.05024391 -255.99800362 272.57681954 -255.9375 256.6875 C-255.93534485 255.66959381 -255.9331897 254.65168762 -255.93096924 253.60293579 C-255.88129854 238.99386477 -255.63040191 224.66174147 -252.625 210.3125 C-252.42632324 209.33764648 -252.22764648 208.36279297 -252.02294922 207.35839844 C-241.90232806 158.9765226 -219.9858123 114.98821731 -185.625 79.3125 C-184.99287598 78.65314453 -184.36075195 77.99378906 -183.70947266 77.31445312 C-174.56502521 67.82619695 -165.26765991 59.0862956 -154.625 51.3125 C-153.47394983 50.45443848 -152.32290823 49.59636549 -151.171875 48.73828125 C-142.98224019 42.70072604 -134.47961724 37.31792698 -125.625 32.3125 C-124.91778809 31.9103125 -124.21057617 31.508125 -123.48193359 31.09375 C-100.34654164 18.0683259 -75.17537591 9.31948539 -49.1875 4 C-48.46860596 3.85264404 -47.74971191 3.70528809 -47.0090332 3.5534668 C-31.36274391 0.57960912 -15.88931954 -0.06050362 0 0 Z " fill="#FBCD36" transform="translate(255.625,-0.3125)"/>
<path d="M0 0 C3.58020116 3.4647108 5.14777387 5.24091948 5.25 10.25 C5.22254521 14.49862813 4.25284355 17.33912922 2 21 C3.0209375 20.93039063 3.0209375 20.93039063 4.0625 20.859375 C20.08773199 20.26269083 33.82890617 25.38743921 46.625 34.8125 C57.26801723 42.64125787 70.4417294 50.6258267 84.01908201 51.06536329 C90.37259101 51.37526003 93.3655286 53.19928466 97.73890686 57.67593384 C98.35504599 58.27465408 98.97118511 58.87337432 99.60599512 59.49023759 C101.65645955 61.49257229 103.67741195 63.52222884 105.69946289 65.55322266 C107.16716171 66.99861067 108.63649424 68.44234135 110.10733032 69.88453674 C114.09106552 73.80194505 118.0486352 77.74480727 121.99998021 81.69485521 C125.30363578 84.9938763 128.61837873 88.28165072 131.93270677 91.56994379 C139.75389925 99.33121181 147.55250186 107.11469555 155.33862305 114.91113281 C163.36279717 122.94494839 171.42861743 130.93516875 179.51541907 138.90589678 C186.46392929 145.75823342 193.38307573 152.63930116 200.2801227 159.54343259 C204.39674497 163.6633929 208.52399733 167.7710666 212.68089485 171.85042191 C216.59141475 175.69009883 220.4639802 179.56442702 224.31082535 183.46786308 C225.72486065 184.89051566 227.15169414 186.30058374 228.59218788 187.69643974 C239.98764752 198.76191979 239.98764752 198.76191979 240.84893608 205.05010605 C240.88541976 208.82979385 240.59283989 212.27217455 240 216 C239.77572903 218.24840889 239.55395 220.4970694 239.3359375 222.74609375 C239.03067137 224.97867153 238.70998659 227.20918787 238.375 229.4375 C238.19751221 230.63761719 238.02002441 231.83773437 237.8371582 233.07421875 C229.8248208 284.63600651 206.18936528 332.42575542 170 370 C169.36787598 370.65935547 168.73575195 371.31871094 168.08447266 371.99804688 C158.94002521 381.48630305 149.64265991 390.2262044 139 398 C137.84894983 398.85806152 136.69790823 399.71613451 135.546875 400.57421875 C127.35569386 406.61236829 118.84195895 411.97095521 110 417 C109.36819824 417.36448242 108.73639648 417.72896484 108.08544922 418.10449219 C86.73048745 430.32736245 62.55788592 439.67993054 38.30905151 444.04443359 C36.81899755 444.31324844 36.81899755 444.31324844 35.29884148 444.5874939 C34.54022379 444.72362091 33.7816061 444.85974792 33 445 C32.67992969 414.0951146 32.43251078 383.19067148 32.28508539 352.28451971 C32.2675776 348.6275026 32.24945688 344.97048878 32.23095703 341.31347656 C32.22728469 340.58549753 32.22361234 339.8575185 32.21982871 339.1074795 C32.15907545 327.35328112 32.04878657 315.60005116 31.91986085 303.84642537 C31.78847176 291.76656639 31.71107988 279.68721101 31.68276107 267.60666692 C31.66535149 260.82891281 31.62384697 254.05316905 31.51977921 247.27614212 C31.4240908 240.8847181 31.39556639 234.49636425 31.41649246 228.10429192 C31.41266977 225.77024909 31.38520535 223.43609379 31.33112335 221.10267448 C30.97192626 204.79200508 34.04544213 195.64258829 45.37361693 183.75247836 C54.8344415 173.5581455 57.49476691 163.5367625 58 150 C59.19625 149.67 60.3925 149.34 61.625 149 C66.860518 146.98349307 69.41163798 143.90104051 72 139 C76.1824961 128.81653124 77.84186958 119.3797084 73.921875 108.9140625 C72.68757543 106.35132187 71.27112011 104.70334008 69 103 C68.01 102.67 67.02 102.34 66 102 C65.98582031 102.65484375 65.97164062 103.3096875 65.95703125 103.984375 C65.5602192 111.57742725 63.83595608 118.37022619 60 125 C59.01 125.33 58.02 125.66 57 126 C46.39791795 116.02156983 38.46929548 102.46301639 36 88 C35.98387915 86.3334113 35.98181926 84.6665675 36 83 C35.10692139 83.00523682 34.21384277 83.01047363 33.29370117 83.01586914 C29.97826492 83.03291786 26.6628753 83.04545347 23.34741211 83.05493164 C21.91283432 83.05995842 20.47826164 83.06678079 19.04370117 83.07543945 C16.98094418 83.08757752 14.91825496 83.09324486 12.85546875 83.09765625 C11.61434326 83.10289307 10.37321777 83.10812988 9.09448242 83.11352539 C6 83 6 83 3 82 C6.90648807 89.45034855 11.75005018 95.30484204 17.51171875 101.3359375 C19.51830471 103.484276 21.30401138 105.60633045 23 108 C2.45765921 108.40948188 -20.05566597 100.71117905 -35.1875 86.625 C-36.50814453 85.34496094 -36.50814453 85.34496094 -37.85546875 84.0390625 C-39.82895115 81.9637667 -39.82895115 81.9637667 -42 81 C-41.68991116 82.60463449 -41.37683713 84.20869231 -41.0625 85.8125 C-40.88847656 86.70582031 -40.71445313 87.59914063 -40.53515625 88.51953125 C-40.02258847 91.11397171 -40.02258847 91.11397171 -39 94 C-48.59297899 93.77643481 -57.00910227 91.05195611 -66 88 C-66.99 87.67 -67.98 87.34 -69 87 C-68.938125 87.99515625 -68.87625 88.9903125 -68.8125 90.015625 C-69.02041183 94.43375144 -70.18682122 97.79121025 -72 101.75 C-72.31179199 102.44520752 -72.62358398 103.14041504 -72.94482422 103.85668945 C-76.85676525 112.26144725 -82.11564362 119.76105203 -89 126 C-92 125 -92 125 -93.0625 123.42578125 C-100.0762079 107.61571468 -102.25196976 87.44135027 -96 71 C-94.0625 67.625 -94.0625 67.625 -93.0234375 66.01953125 C-91.60496404 63.22048248 -90.96425905 60.34982705 -90.1875 57.3125 C-86.42778113 43.59972692 -79.26362421 34.07652762 -67.02734375 26.8984375 C-60.75508894 23.54073303 -54.81432744 22.72812232 -47.8125 22 C-29.04265774 19.58802624 -13.32114445 14.0324677 0 0 Z " fill="#F9B935" transform="translate(272,63)"/>
<path d="M0 0 C3.20167976 1.40647742 5.23131838 3.09635416 7.6875 5.5625 C22.39297278 18.84330465 44.42041919 26.2665537 64 26 C63.28714844 25.32195312 62.57429687 24.64390625 61.83984375 23.9453125 C47.20144356 9.80577426 47.20144356 9.80577426 45 1 C61.335 1.495 61.335 1.495 78 2 C79.98 9.92 79.98 9.92 82 18 C83.19929867 21.00442863 84.29960148 23.63939798 85.8125 26.4375 C86.15506836 27.09435791 86.49763672 27.75121582 86.85058594 28.42797852 C91.42616801 37.75461928 91.42616801 37.75461928 99.203125 43.72265625 C99.79609375 43.81417969 100.3890625 43.90570313 101 44 C104.47288089 36.40472995 106.90612562 29.29385354 108 21 C112.55568022 21.5197756 112.55568022 21.5197756 114.546875 23.671875 C118.7037037 30.85185185 118.7037037 30.85185185 119 35 C119.061875 35.68320313 119.12375 36.36640625 119.1875 37.0703125 C119.69618784 46.9579323 116.91118105 56.83589467 110.51171875 64.4765625 C108.49973068 66.50414738 106.63707244 67.88965371 104 69 C102.68 69 101.36 69 100 69 C100.06960938 69.94359375 100.13921875 70.8871875 100.2109375 71.859375 C100.85018645 87.01870725 94.46477065 96.02892264 85 107.359375 C84.53900693 107.92293386 84.07801386 108.48649273 83.6030513 109.06712914 C82.56824244 110.3148446 81.50886093 111.54276349 80.4212321 112.74471474 C75.8249994 118.16557248 75.1385402 122.28333407 75.24050903 129.26318359 C75.23129893 130.27048932 75.22208883 131.27779505 75.21259964 132.31562519 C75.18908218 135.67709978 75.20810382 139.03695449 75.22705078 142.3984375 C75.21887773 144.81338996 75.20807403 147.22833474 75.19483948 149.64326477 C75.17229076 154.8352263 75.16797908 160.02685981 75.18042374 165.21884155 C75.19838448 172.72542691 75.1831956 180.23166085 75.16004442 187.73821867 C75.1233735 199.91844293 75.11332737 212.09853671 75.12011719 224.27880859 C75.12665368 236.10730422 75.12059352 247.93568337 75.09765625 259.76416016 C75.09554027 260.85872835 75.09554027 260.85872835 75.09338154 261.97540903 C75.08622685 265.63634184 75.07882518 269.29727411 75.07130075 272.95820618 C75.0092462 303.30548569 74.99088519 333.65265351 75 364 C72.28052038 364.48768863 69.56070232 364.9733356 66.84065247 365.45782471 C65.69292508 365.66397243 65.69292508 365.66397243 64.52201128 365.87428474 C55.73206895 367.43630053 47.13180242 368.15652031 38.20703125 368.203125 C37.30562912 368.20995804 36.40422699 368.21679108 35.47550964 368.22383118 C32.58780109 368.24077704 29.70025528 368.24714969 26.8125 368.25 C25.83144287 368.25200409 24.85038574 368.25400818 23.83959961 368.256073 C8.05226548 368.26398928 -7.61220925 367.96449331 -23 364 C-22.99224863 362.75392786 -22.98449726 361.50785572 -22.976511 360.22402382 C-22.79523871 330.5774583 -22.68693651 300.93159127 -22.66726766 271.28451971 C-22.66477835 267.62750481 -22.66167931 263.97049066 -22.65820312 260.31347656 C-22.65752139 259.58549753 -22.65683966 258.8575185 -22.65613727 258.1074795 C-22.64367933 246.35344578 -22.58194222 234.60016927 -22.50166626 222.84642537 C-22.42027078 210.76635318 -22.39259034 198.68699858 -22.41372812 186.60666692 C-22.42407396 179.82907222 -22.41044582 173.05336907 -22.33458328 166.27614212 C-22.26548188 159.88447782 -22.26318644 153.4961243 -22.31009102 147.10429192 C-22.31581484 144.77035089 -22.29802403 142.43620252 -22.25374794 140.10267448 C-21.96326114 123.80609391 -25.06409034 114.63626373 -36.37508082 102.75247836 C-45.99710417 92.37510824 -48.47903732 82.78562946 -48 69 C-49.61841797 68.85884766 -49.61841797 68.85884766 -51.26953125 68.71484375 C-56.15324021 67.77901261 -57.4301666 66.13346039 -60.42578125 62.390625 C-66.21288215 53.60227326 -68.17103019 43.38485017 -67 33 C-65.25645272 27.94438607 -63.50148498 24.00098999 -59 21 C-58.01 21 -57.02 21 -56 21 C-55.82984375 21.90621094 -55.6596875 22.81242187 -55.484375 23.74609375 C-54.05078179 30.95218728 -52.4038259 37.46880107 -49 44 C-45.73426677 43.76726959 -44.89967858 42.88825168 -42.66796875 40.40234375 C-41.82506018 39.25908264 -40.99916175 38.10315262 -40.1875 36.9375 C-39.53599976 36.01215454 -39.53599976 36.01215454 -38.87133789 35.06811523 C-35.73050344 30.44168057 -33.18918219 25.67678591 -30.9375 20.5625 C-30.65092529 19.91337646 -30.36435059 19.26425293 -30.0690918 18.59545898 C-28.30686255 14.35752315 -27.47249079 10.52074523 -27 6 C-23.00083991 6.720299 -19.19781484 7.81656704 -15.3125 9 C-9.51952182 10.68478607 -4.02123127 11.7225239 2 12 C1.50886719 11.14148438 1.50886719 11.14148438 1.0078125 10.265625 C-0.54607068 6.77239926 -0.12645353 3.79360577 0 0 Z " fill="#FCCCBE" transform="translate(230,144)"/>
<path d="M0 0 C0 65.34 0 130.68 0 198 C-17.82047872 194.43590426 -17.82047872 194.43590426 -25.9375 191.9375 C-27.38431152 191.49241089 -27.38431152 191.49241089 -28.86035156 191.03833008 C-55.23214313 182.67109418 -79.62327816 170.23478002 -102 154 C-102.72243173 153.55285865 -103.44486345 153.1057173 -104.18918705 152.64502621 C-110.48979147 148.41184554 -110.48979147 148.41184554 -111.83124924 144.69977283 C-112.13462186 141.98024326 -112.16038368 139.38493951 -112.08520508 136.64941406 C-112.09294449 135.63218262 -112.1006839 134.61495117 -112.10865784 133.56689453 C-112.12274287 130.2148459 -112.07228735 126.86723549 -112.01953125 123.515625 C-112.01289117 121.1754425 -112.00966284 118.83524807 -112.00968933 116.49505615 C-112.00040223 111.59210694 -111.96119227 106.69064049 -111.89868164 101.78808594 C-111.81960347 95.52598774 -111.79702997 89.26535976 -111.79483509 83.00281143 C-111.78984287 78.16918817 -111.76350223 73.3358752 -111.72995567 68.50237274 C-111.71478458 66.19488766 -111.70406802 63.88736861 -111.69800758 61.57984161 C-111.68451125 58.34204122 -111.64446516 55.10562213 -111.59692383 51.86816406 C-111.59716553 50.92753113 -111.59740723 49.98689819 -111.59765625 49.01776123 C-111.34442883 36.74432771 -105.87915067 24.65544698 -97.78125 15.48828125 C-70.90195374 -10.21286404 -37.1105656 0 0 0 Z " fill="#555A64" transform="translate(207,310)"/>
<path d="M0 0 C80.71055556 0 80.71055556 0 97.1171875 14.9453125 C106.72585147 25.43111592 111.23900757 37.41021197 111.43334961 51.36645508 C111.45452347 52.38529282 111.47569733 53.40413055 111.49751282 54.45384216 C111.70188629 65.0568255 111.78811783 75.6622937 111.86499023 86.2668457 C111.90512354 91.29311427 111.98178772 96.31679785 112.09057617 101.34204102 C112.22203761 107.42588544 112.28931429 113.50731041 112.3112812 119.5925045 C112.3302007 121.90392667 112.37136073 124.21528226 112.43562126 126.52588844 C112.93639184 145.52717407 112.93639184 145.52717407 108.18218994 150.58627319 C105.04093848 153.2724334 101.67261975 155.12610149 98 157 C96.40053145 158.06325407 94.81090544 159.14187866 93.2421875 160.25 C91.79228939 161.17586211 90.33648857 162.09254403 88.875 163 C88.0720752 163.49999512 87.26915039 163.99999023 86.44189453 164.51513672 C59.7933932 180.89702884 30.80822506 192.39850453 0 198 C0 132.66 0 67.32 0 0 Z " fill="#33393F" transform="translate(305,310)"/>
<path d="M0 0 C6.74183267 4.49455511 6.74183267 4.49455511 9.8125 7.06640625 C10.48845215 7.62884033 11.1644043 8.19127441 11.86083984 8.77075195 C12.5667627 9.36202881 13.27268555 9.95330566 14 10.5625 C19.40322974 15.05269753 24.83403588 19.49319024 30.375 23.8125 C36.32613071 28.45175821 42.18339144 33.19239497 48 38 C51.83345948 36.32924284 54.94412437 33.83881683 58.1875 31.25 C59.09628906 30.53070313 59.09628906 30.53070313 60.0234375 29.796875 C65.62296828 25.34450976 71.13352786 20.78527967 76.64526367 16.22509766 C81.38984285 12.30644077 86.16843286 8.43595514 91 4.625 C91.59361328 4.15449219 92.18722656 3.68398438 92.79882812 3.19921875 C96.87807513 0 96.87807513 0 98 0 C98 65.34 98 130.68 98 198 C85.34395471 200.23341976 73.87468584 202.13697517 61.20703125 202.203125 C60.30562912 202.20995804 59.40422699 202.21679108 58.47550964 202.22383118 C55.58780109 202.24077704 52.70025528 202.24714969 49.8125 202.25 C48.83144287 202.25200409 47.85038574 202.25400818 46.83959961 202.256073 C31.00770089 202.26401163 15.4480988 201.8620247 0 198 C0 132.66 0 67.32 0 0 Z " fill="#FEFEFE" transform="translate(207,310)"/>
<path d="M0 0 C3.58020116 3.4647108 5.14777387 5.24091948 5.25 10.25 C5.22254521 14.49862813 4.25284355 17.33912922 2 21 C3.0209375 20.93039063 3.0209375 20.93039063 4.0625 20.859375 C20.08773199 20.26269083 33.82890617 25.38743921 46.625 34.8125 C59.81719938 44.51637743 73.6011292 50.4231855 90 52 C85.53925161 61.90548539 75.11332034 67.83339319 66 73 C65.34 73 64.68 73 64 73 C64.48726562 74.10988281 64.97453125 75.21976562 65.4765625 76.36328125 C67.33239051 81.33510788 67.45754027 85.9255577 67.375 91.1875 C67.36194824 92.57352417 67.36194824 92.57352417 67.34863281 93.98754883 C67.12516151 104.46780352 65.35475214 115.78667647 60 125 C59.01 125.33 58.02 125.66 57 126 C46.39791795 116.02156983 38.46929548 102.46301639 36 88 C35.98387915 86.3334113 35.98181926 84.6665675 36 83 C35.10692139 83.00523682 34.21384277 83.01047363 33.29370117 83.01586914 C29.97826492 83.03291786 26.6628753 83.04545347 23.34741211 83.05493164 C21.91283432 83.05995842 20.47826164 83.06678079 19.04370117 83.07543945 C16.98094418 83.08757752 14.91825496 83.09324486 12.85546875 83.09765625 C11.61434326 83.10289307 10.37321777 83.10812988 9.09448242 83.11352539 C6 83 6 83 3 82 C6.90648807 89.45034855 11.75005018 95.30484204 17.51171875 101.3359375 C19.51830471 103.484276 21.30401138 105.60633045 23 108 C2.45765921 108.40948188 -20.05566597 100.71117905 -35.1875 86.625 C-36.50814453 85.34496094 -36.50814453 85.34496094 -37.85546875 84.0390625 C-39.82895115 81.9637667 -39.82895115 81.9637667 -42 81 C-41.68991116 82.60463449 -41.37683713 84.20869231 -41.0625 85.8125 C-40.88847656 86.70582031 -40.71445313 87.59914063 -40.53515625 88.51953125 C-40.02258847 91.11397171 -40.02258847 91.11397171 -39 94 C-48.59297899 93.77643481 -57.00910227 91.05195611 -66 88 C-66.99 87.67 -67.98 87.34 -69 87 C-68.938125 87.99515625 -68.87625 88.9903125 -68.8125 90.015625 C-69.02041183 94.43375144 -70.18682122 97.79121025 -72 101.75 C-72.31179199 102.44520752 -72.62358398 103.14041504 -72.94482422 103.85668945 C-76.85676525 112.26144725 -82.11564362 119.76105203 -89 126 C-92 125 -92 125 -93.0625 123.42578125 C-100.0762079 107.61571468 -102.25196976 87.44135027 -96 71 C-94.0625 67.625 -94.0625 67.625 -93.0234375 66.01953125 C-91.60496404 63.22048248 -90.96425905 60.34982705 -90.1875 57.3125 C-86.42778113 43.59972692 -79.26362421 34.07652762 -67.02734375 26.8984375 C-60.75508894 23.54073303 -54.81432744 22.72812232 -47.8125 22 C-29.04265774 19.58802624 -13.32114445 14.0324677 0 0 Z " fill="#A65D4E" transform="translate(272,63)"/>
<path d="M0 0 C16.335 0.495 16.335 0.495 33 1 C34.32 6.28 35.64 11.56 37 17 C38.19929867 20.00442863 39.29960148 22.63939798 40.8125 25.4375 C41.32635254 26.42278687 41.32635254 26.42278687 41.85058594 27.42797852 C46.42616801 36.75461928 46.42616801 36.75461928 54.203125 42.72265625 C55.09257812 42.85994141 55.09257812 42.85994141 56 43 C59.47288089 35.40472995 61.90612562 28.29385354 63 20 C67.55568022 20.5197756 67.55568022 20.5197756 69.546875 22.671875 C73.7037037 29.85185185 73.7037037 29.85185185 74 34 C74.061875 34.68320313 74.12375 35.36640625 74.1875 36.0703125 C74.69618784 45.9579323 71.91118105 55.83589467 65.51171875 63.4765625 C63.49973068 65.50414738 61.63707244 66.88965371 59 68 C57.68 68 56.36 68 55 68 C55.06960938 68.94359375 55.13921875 69.8871875 55.2109375 70.859375 C55.85018645 86.01870725 49.46477065 95.02892264 40 106.359375 C39.30930672 107.20551109 39.30930672 107.20551109 38.60466003 108.06874084 C37.56906788 109.31510879 36.5044376 110.53816326 35.40675354 111.73020935 C30.61974291 117.3012981 30.27708208 121.51095424 30.65234375 128.67578125 C30.68751586 130.74150387 30.72065563 132.80726192 30.75195312 134.87304688 C30.83458197 138.09361043 30.93741209 141.31049269 31.07836914 144.52905273 C31.8331948 163.51895368 31.8331948 163.51895368 27.28076172 168.74438477 C24.13952937 171.65960688 20.67733501 173.81811274 17 176 C15.73621516 176.97188319 14.48600012 177.96241887 13.265625 178.98828125 C11.77289063 180.13876953 11.77289063 180.13876953 10.25 181.3125 C6.27848065 184.38606083 2.36343583 187.51135914 -1.48828125 190.734375 C-2.62861816 191.68703247 -2.62861816 191.68703247 -3.79199219 192.65893555 C-5.27509272 193.90234789 -6.75382257 195.1509973 -8.22753906 196.40551758 C-9.24605957 197.25859497 -9.24605957 197.25859497 -10.28515625 198.12890625 C-11.18053101 198.88796265 -11.18053101 198.88796265 -12.09399414 199.66235352 C-14 201 -14 201 -19 203 C-19 141.62 -19 80.24 -19 17 C-16.03 17.99 -13.06 18.98 -10 20 C-0.16947584 23.03605113 8.71974924 24.6831972 19 25 C18.28714844 24.32195312 17.57429688 23.64390625 16.83984375 22.9453125 C2.20144356 8.80577426 2.20144356 8.80577426 0 0 Z " fill="#FBBDAB" transform="translate(275,145)"/>
<path d="M0 0 C0 65.34 0 130.68 0 198 C-13.47299308 200.37758701 -25.19008271 202.17909141 -38.625 202.0625 C-39.62917969 202.05798828 -40.63335937 202.05347656 -41.66796875 202.04882812 C-44.11204471 202.03718967 -46.5559882 202.0208424 -49 202 C-49.30411883 180.93788004 -49.53313708 159.87612367 -49.67355824 138.81225109 C-49.74050164 129.03106845 -49.83170958 119.25125245 -49.98071289 109.47094727 C-50.11057312 100.94307037 -50.19422231 92.41618333 -50.22315043 83.88734514 C-50.24005395 79.37363828 -50.27956448 74.86276226 -50.37449074 70.34996605 C-50.4632658 66.09480565 -50.48985302 61.84361831 -50.47039986 57.58761978 C-50.47395367 56.03267684 -50.49951893 54.47759038 -50.54967117 52.92345238 C-50.89888324 41.53578073 -50.89888324 41.53578073 -47.73085952 37.30518174 C-44.20898822 33.64840868 -40.18658304 30.84261258 -36 28 C-34.38405895 26.72309437 -32.77697374 25.43470481 -31.1875 24.125 C-30.39859375 23.49980469 -29.6096875 22.87460937 -28.796875 22.23046875 C-25.86734586 19.89421018 -22.96059863 17.53161066 -20.05615234 15.16430664 C-1.4507723 0 -1.4507723 0 0 0 Z " fill="#E8ECF4" transform="translate(305,310)"/>
<path d="M0 0 C0.33 0 0.66 0 1 0 C1 28.05 1 56.1 1 85 C-7.97666226 82.00777925 -15.25507233 77.36732943 -21.66015625 70.3828125 C-22.97230304 68.87586574 -22.97230304 68.87586574 -25 68 C-24.68991116 69.60463449 -24.37683713 71.20869231 -24.0625 72.8125 C-23.88847656 73.70582031 -23.71445313 74.59914063 -23.53515625 75.51953125 C-23.02258847 78.11397171 -23.02258847 78.11397171 -22 81 C-31.59297899 80.77643481 -40.00910227 78.05195611 -49 75 C-49.99 74.67 -50.98 74.34 -52 74 C-51.938125 74.99515625 -51.87625 75.9903125 -51.8125 77.015625 C-52.02041183 81.43375144 -53.18682122 84.79121025 -55 88.75 C-55.31179199 89.44520752 -55.62358398 90.14041504 -55.94482422 90.85668945 C-59.85676525 99.26144725 -65.11564362 106.76105203 -72 113 C-75 112 -75 112 -76.0625 110.42578125 C-83.0762079 94.61571468 -85.25196976 74.44135027 -79 58 C-77.0625 54.625 -77.0625 54.625 -76.0234375 53.01953125 C-74.60496404 50.22048248 -73.96425905 47.34982705 -73.1875 44.3125 C-69.42778113 30.59972692 -62.26362421 21.07652762 -50.02734375 13.8984375 C-43.75648009 10.54147775 -37.81388387 9.7242639 -30.8125 9 C-14.37016549 7.43251323 -14.37016549 7.43251323 0 0 Z " fill="#B46E5A" transform="translate(255,76)"/>
<path d="M0 0 C0.33 0 0.66 0 1 0 C1.32364877 6.20677914 1.55824024 12.40856491 1.71411133 18.62182617 C1.77912334 20.73011879 1.8675756 22.83783343 1.98071289 24.9440918 C2.94600636 43.38949589 2.94600636 43.38949589 -1.71435547 48.71704102 C-4.85994418 51.63121387 -8.3276247 53.80432394 -12 56 C-13.26332785 56.97247715 -14.51342958 57.96309769 -15.734375 58.98828125 C-16.72953125 59.75527344 -17.7246875 60.52226562 -18.75 61.3125 C-22.72151935 64.38606083 -26.63656417 67.51135914 -30.48828125 70.734375 C-31.62861816 71.68703247 -31.62861816 71.68703247 -32.79199219 72.65893555 C-34.27509272 73.90234789 -35.75382257 75.1509973 -37.22753906 76.40551758 C-37.90655273 76.97423584 -38.58556641 77.5429541 -39.28515625 78.12890625 C-39.88207275 78.63494385 -40.47898926 79.14098145 -41.09399414 79.66235352 C-43 81 -43 81 -48 83 C-48 63.86 -48 44.72 -48 25 C-41.73 24.67 -35.46 24.34 -29 24 C-15.54268338 19.51422779 -9.17821559 12.68508065 -1.12890625 1.43359375 C-0.75636719 0.96050781 -0.38382812 0.48742187 0 0 Z " fill="#F6A690" transform="translate(304,265)"/>
<path d="M0 0 C3.37457755 3.32618028 6.36888193 6.67604029 9.25 10.4375 C15.00033096 17.53691027 20.35847287 21.11949096 29 24 C35.6 24.33 42.2 24.66 49 25 C49.33 44.47 49.66 63.94 50 84 C46.7290495 82.36452475 44.52751099 80.9551532 41.75 78.6875 C40.8734375 77.9759375 39.996875 77.264375 39.09375 76.53125 C38.0728125 75.6959375 37.051875 74.860625 36 74 C33.41805883 71.89412174 30.83424022 69.79055605 28.25 67.6875 C27.5698584 67.13344482 26.8897168 66.57938965 26.18896484 66.00854492 C21.0677367 61.84505766 15.90050501 57.74438979 10.69238281 53.69018555 C9.12321083 52.46656526 7.56150409 51.23339057 6 50 C4.9584375 49.33782471 3.916875 48.67564941 2.84375 47.9934082 C0.84153494 46.30628593 0.09222841 45.38425192 -0.52426147 42.81576538 C-0.69492844 40.08074507 -0.67442804 37.40693084 -0.5859375 34.66796875 C-0.57744781 33.67622147 -0.56895813 32.68447418 -0.56021118 31.66267395 C-0.52669358 28.5031654 -0.45141516 25.34623361 -0.375 22.1875 C-0.34489838 20.04235463 -0.31752292 17.89716916 -0.29296875 15.75195312 C-0.22690856 10.5004268 -0.12657785 5.25039748 0 0 Z " fill="#FCBEAB" transform="translate(207,265)"/>
<path d="M0 0 C4.95 0 9.9 0 15 0 C15 32.67 15 65.34 15 99 C10 98 10 98 0 93 C0 62.31 0 31.62 0 0 Z " fill="#32383F" transform="translate(144,394)"/>
<path d="M0 0 C4.95 0 9.9 0 15 0 C15 30.69 15 61.38 15 93 C3 99 3 99 0 99 C0 66.33 0 33.66 0 0 Z " fill="#0F1113" transform="translate(353,394)"/>
<path d="M0 0 C3.01015294 1.3510265 5.11967466 2.86335687 7.453125 5.1875 C8.071875 5.80367188 8.690625 6.41984375 9.328125 7.0546875 C9.96234375 7.69664063 10.5965625 8.33859375 11.25 9 C11.8996875 9.64195313 12.549375 10.28390625 13.21875 10.9453125 C13.83234375 11.56148437 14.4459375 12.17765625 15.078125 12.8125 C15.63918945 13.37582031 16.20025391 13.93914062 16.77832031 14.51953125 C18 16 18 16 18 18 C11.4 17.34 4.8 16.68 -2 16 C-1.34 14.02 -0.68 12.04 0 10 C0.23830229 7.25709721 0.23830229 7.25709721 0.125 4.625 C0.10695313 3.75101562 0.08890625 2.87703125 0.0703125 1.9765625 C0.04710937 1.32429688 0.02390625 0.67203125 0 0 Z " fill="#F8B835" transform="translate(276,68)"/>
</svg>
