<svg width="725" height="535" viewBox="0 0 725 535" fill="none" xmlns="http://www.w3.org/2000/svg">
<mask id="mask0_489_1586" style="mask-type:alpha" maskUnits="userSpaceOnUse" x="0" y="0" width="725" height="535">
<path d="M172.397 155.323C162.855 155.323 155.12 163.049 155.12 172.581C155.12 182.112 162.855 189.839 172.397 189.839H327.885C337.426 189.839 345.161 197.565 345.161 207.097V327.903C345.161 337.435 337.426 345.161 327.885 345.161H172.397C53.4099 345.161 -30.4503 221.601 10.5224 112.143C35.0423 46.6379 98.2673 0 172.397 0H327.885C337.426 0 345.161 7.72669 345.161 17.2581V138.065C345.161 147.596 337.426 155.323 327.885 155.323H172.397Z" fill="black"/>
<path d="M327.885 535C337.426 535 345.161 527.273 345.161 517.742V396.936C345.161 387.404 337.426 379.677 327.885 379.677H172.397C106.911 379.677 48.5158 349.347 10.5224 301.982C-30.4502 411.44 53.4099 535 172.397 535H327.885Z" fill="black"/>
<path d="M396.954 0C387.412 0 379.677 7.72669 379.677 17.2581V138.065C379.677 147.596 387.412 155.323 396.954 155.323H552.442C617.928 155.323 676.323 185.653 714.316 233.018C755.289 123.56 671.429 0 552.442 0H396.954Z" fill="black"/>
<path d="M552.442 379.677C561.984 379.677 569.718 371.951 569.718 362.419C569.718 352.888 561.984 345.161 552.442 345.161H396.954C387.412 345.161 379.677 337.435 379.677 327.903V207.097C379.677 197.565 387.412 189.839 396.954 189.839H552.442C671.429 189.839 755.289 313.398 714.316 422.857C689.796 488.362 626.571 535 552.442 535H396.954C387.412 535 379.677 527.273 379.677 517.742V396.936C379.677 387.404 387.412 379.677 396.954 379.677H552.442Z" fill="black"/>
</mask>
<g mask="url(#mask0_489_1586)">
<ellipse cx="345.449" cy="494.156" rx="732.892" ry="732.893" transform="rotate(-45 345.449 494.156)" fill="url(#paint0_linear_489_1586)"/>
</g>
<defs>
<linearGradient id="paint0_linear_489_1586" x1="345.449" y1="-238.736" x2="345.449" y2="1227.05" gradientUnits="userSpaceOnUse">
<stop stop-color="#13C296" stop-opacity="0.4"/>
<stop offset="1" stop-opacity="0"/>
</linearGradient>
</defs>
</svg>
